<?xml version="1.0" encoding="UTF-8" standalone="no"?>
<!DOCTYPE svg PUBLIC "-//W3C//DTD SVG 1.1//EN" "http://www.w3.org/Graphics/SVG/1.1/DTD/svg11.dtd">
<svg width="100%" height="100%" viewBox="0 0 154 154" version="1.1" xmlns="http://www.w3.org/2000/svg" xmlns:xlink="http://www.w3.org/1999/xlink" xml:space="preserve" xmlns:serif="http://www.serif.com/" style="fill-rule:evenodd;clip-rule:evenodd;stroke-linejoin:round;stroke-miterlimit:2;">
    <g opacity="0.05">
        <circle cx="5" cy="5" r="5" style="fill:rgb(15,0,26);"/>
        <circle cx="5" cy="33.688" r="5" style="fill:rgb(15,0,26);"/>
        <circle cx="5" cy="62.375" r="5" style="fill:rgb(15,0,26);"/>
        <circle cx="5" cy="91.063" r="5" style="fill:rgb(15,0,26);"/>
        <circle cx="5" cy="119.75" r="5" style="fill:rgb(15,0,26);"/>
        <circle cx="5" cy="148.438" r="5" style="fill:rgb(15,0,26);"/>
        <circle cx="33.688" cy="5" r="5" style="fill:rgb(15,0,26);"/>
        <circle cx="33.688" cy="33.688" r="5" style="fill:rgb(15,0,26);"/>
        <circle cx="33.688" cy="62.375" r="5" style="fill:rgb(15,0,26);"/>
        <circle cx="33.688" cy="91.063" r="5" style="fill:rgb(15,0,26);"/>
        <circle cx="33.688" cy="119.75" r="5" style="fill:rgb(15,0,26);"/>
        <circle cx="33.688" cy="148.438" r="5" style="fill:rgb(15,0,26);"/>
        <circle cx="62.375" cy="5" r="5" style="fill:rgb(15,0,26);"/>
        <circle cx="62.375" cy="33.688" r="5" style="fill:rgb(15,0,26);"/>
        <circle cx="62.375" cy="62.375" r="5" style="fill:rgb(15,0,26);"/>
        <circle cx="62.375" cy="91.063" r="5" style="fill:rgb(15,0,26);"/>
        <circle cx="62.375" cy="119.75" r="5" style="fill:rgb(15,0,26);"/>
        <circle cx="62.375" cy="148.438" r="5" style="fill:rgb(15,0,26);"/>
        <circle cx="91.063" cy="5" r="5" style="fill:rgb(15,0,26);"/>
        <circle cx="119.75" cy="5" r="5" style="fill:rgb(15,0,26);"/>
        <circle cx="148.438" cy="5" r="5" style="fill:rgb(15,0,26);"/>
        <circle cx="91.063" cy="33.688" r="5" style="fill:rgb(15,0,26);"/>
        <circle cx="119.75" cy="33.688" r="5" style="fill:rgb(15,0,26);"/>
        <circle cx="148.438" cy="33.688" r="5" style="fill:rgb(15,0,26);"/>
        <circle cx="91.063" cy="62.375" r="5" style="fill:rgb(15,0,26);"/>
        <circle cx="119.75" cy="62.375" r="5" style="fill:rgb(15,0,26);"/>
        <circle cx="148.438" cy="62.375" r="5" style="fill:rgb(15,0,26);"/>
        <circle cx="91.063" cy="91.063" r="5" style="fill:rgb(15,0,26);"/>
        <circle cx="91.063" cy="119.75" r="5" style="fill:rgb(15,0,26);"/>
        <circle cx="91.063" cy="148.438" r="5" style="fill:rgb(15,0,26);"/>
        <circle cx="119.75" cy="91.063" r="5" style="fill:rgb(15,0,26);"/>
        <circle cx="119.75" cy="119.75" r="5" style="fill:rgb(15,0,26);"/>
        <circle cx="119.75" cy="148.438" r="5" style="fill:rgb(15,0,26);"/>
        <circle cx="148.438" cy="91.063" r="5" style="fill:rgb(15,0,26);"/>
        <circle cx="148.438" cy="119.75" r="5" style="fill:rgb(15,0,26);"/>
        <circle cx="148.438" cy="148.438" r="5" style="fill:rgb(15,0,26);"/>
    </g>
</svg>
