<?xml version="1.0" encoding="UTF-8" standalone="no"?>
<!DOCTYPE svg PUBLIC "-//W3C//DTD SVG 1.1//EN" "http://www.w3.org/Graphics/SVG/1.1/DTD/svg11.dtd">
<svg width="100%" height="100%" viewBox="0 0 273 138" version="1.1" xmlns="http://www.w3.org/2000/svg" xmlns:xlink="http://www.w3.org/1999/xlink" xml:space="preserve" xmlns:serif="http://www.serif.com/" style="fill-rule:evenodd;clip-rule:evenodd;stroke-linejoin:round;stroke-miterlimit:2;">
    <g>
        <path d="M201.995,66C201.988,78.129 198.67,90.022 192.403,100.377C186.137,110.731 177.164,119.146 166.467,124.701C165.841,125.031 165.205,125.347 164.564,125.652C164.276,125.795 163.993,125.927 163.7,126.06C161.873,126.905 159.998,127.663 158.075,128.335C156.561,128.869 155.005,129.353 153.435,129.77C138.603,133.752 122.856,132.371 108.93,125.866C108.359,125.596 107.789,125.322 107.228,125.037C96.801,119.779 87.956,111.81 81.606,101.952C75.257,92.096 71.633,80.708 71.11,68.967C70.587,57.226 73.183,45.557 78.63,35.166C84.078,24.774 92.178,16.038 102.096,9.859C112.013,3.679 123.387,0.282 135.043,0.017C146.698,-0.249 158.213,2.628 168.396,8.35C178.58,14.072 187.063,22.432 192.97,32.565C198.877,42.698 201.992,54.237 201.995,65.99L201.995,66Z" style="fill:url(#_Linear1);fill-rule:nonzero;"/>
    </g>
    <g>
        <path d="M110.854,106.742L103.623,95.355C103.623,95.355 123.654,72.012 125.658,70.632C125.658,70.632 115.554,87.72 110.854,106.742Z" style="fill:url(#_Linear2);fill-rule:nonzero;"/>
    </g>
    <g>
        <path d="M103.623,95.355L89.99,107.572L64.909,95.355L45.722,96.414C45.722,96.414 57.673,100.486 61.036,100.318L64.404,100.15C64.404,100.15 85.001,120.17 89.737,121.697C94.473,123.224 110.031,111.252 110.031,111.252L110.934,106.778L103.623,95.355Z" style="fill:url(#_Linear3);fill-rule:nonzero;"/>
    </g>
    <g>
        <path d="M141.241,67.868C139.346,68.793 137.309,69.385 135.217,69.619C132.798,69.986 129.122,68.632 129.122,68.632C131.899,66.428 131.253,61.23 131.253,61.23L131.314,61.2C134.278,60.971 136.757,59.276 138.489,57.637C137.863,62.086 141.241,67.868 141.241,67.868Z" style="fill:url(#_Linear4);fill-rule:nonzero;"/>
    </g>
    <g>
        <path d="M141.241,51.315L141.241,54.369C140.451,55.555 139.53,56.647 138.494,57.621C136.762,59.266 134.283,60.961 131.319,61.185C129.972,61.288 128.62,61.088 127.36,60.599C119.281,57.545 124.962,41.384 124.962,41.384C127.527,34.807 139.14,37.989 139.14,37.989C140.695,39.857 140.993,45.074 140.933,45.583C140.674,46.298 140.335,46.981 139.923,47.619C139.923,47.619 142.129,45.522 142.887,46.917C143.644,48.312 141.241,51.315 141.241,51.315Z" style="fill:url(#_Linear5);fill-rule:nonzero;"/>
    </g>
    <g>
        <path d="M141.241,54.379L141.241,51.325C141.241,51.325 143.639,48.347 142.882,46.942C142.124,45.537 139.918,47.645 139.918,47.645C140.33,47.007 140.669,46.324 140.928,45.609C140.988,45.1 140.736,40.177 139.135,38.014C139.135,38.014 127.522,34.833 124.956,41.409C124.956,41.409 121.634,40.559 118.771,36.573C114.09,30.053 119.68,29.254 125.219,30.511C131.94,32.038 138.676,27.029 146.376,32.119C154.076,37.21 147.174,48.78 141.241,54.379Z" style="fill:rgb(38,47,114);fill-rule:nonzero;"/>
    </g>
    <g>
        <path d="M158.707,92.459C162.16,102.823 164.72,114.82 166.468,124.701C165.841,125.031 165.205,125.347 164.564,125.652C164.276,125.795 163.993,125.927 163.7,126.06C161.873,126.905 159.998,127.663 158.075,128.335C156.561,128.869 155.005,129.353 153.435,129.77C138.603,133.752 122.856,132.371 108.93,125.866C108.359,125.596 107.789,125.322 107.228,125.037C108.238,119.809 109.44,113.665 110.849,106.747C111.36,104.24 111.897,101.63 112.459,98.918C115.353,85.027 119.503,77.463 122.932,73.366L122.967,73.325C123.618,72.546 124.324,71.814 125.078,71.136C125.099,71.111 125.122,71.089 125.148,71.07C125.32,70.917 125.492,70.775 125.653,70.637C127.719,68.942 129.122,68.632 129.122,68.632L129.249,68.677L129.319,68.677C130.416,69.114 131.566,69.399 132.738,69.528L132.965,69.528C133.713,69.6 134.466,69.612 135.217,69.563L135.262,69.563C137.346,69.429 139.376,68.839 141.211,67.833C143.361,68.55 145.387,69.603 147.214,70.953C152.435,74.816 162.953,88.982 162.953,88.982L158.707,92.459Z" style="fill:url(#_Linear6);fill-rule:nonzero;"/>
    </g>
    <g>
        <path d="M177.94,111.802C177.909,113.217 176.632,116.088 174.764,119.57C172.128,121.487 169.353,123.202 166.462,124.701C165.836,125.031 165.2,125.347 164.559,125.652C164.271,125.795 163.988,125.927 163.695,126.06C161.867,126.905 159.992,127.663 158.07,128.335L162.948,112.662L150.325,99.3L158.702,92.459L162.948,88.993C162.948,88.993 178.071,106.33 177.94,111.802Z" style="fill:url(#_Linear7);fill-rule:nonzero;"/>
    </g>
    <g>
        <path d="M52.218,108.988L0,106.06L0,78.504L52.218,81.432L52.218,108.988Z" style="fill:rgb(143,151,185);"/>
    </g>
    <g>
        <path d="M52.218,81.466L0,78.494L47.712,62L99.93,64.972L52.218,81.466Z" style="fill:rgb(229,232,245);"/>
    </g>
    <g>
        <path d="M99.939,86.896L52.243,108.943L52.223,81.466L99.925,64.849L99.939,86.896Z" style="fill:rgb(187,192,214);"/>
    </g>
    <defs>
        <linearGradient id="_Linear1" x1="0" y1="0" x2="1" y2="0" gradientUnits="userSpaceOnUse" gradientTransform="matrix(-2.276,130.096,-130.096,-2.276,136.788,7.16742)"><stop offset="0" style="stop-color:white;stop-opacity:0"/><stop offset="1" style="stop-color:rgb(100,181,246);stop-opacity:0.6"/></linearGradient>
        <linearGradient id="_Linear2" x1="0" y1="0" x2="1" y2="0" gradientUnits="userSpaceOnUse" gradientTransform="matrix(-3.848,35.2428,-35.2428,-3.848,116.231,68.2092)"><stop offset="0" style="stop-color:rgb(66,165,245);stop-opacity:1"/><stop offset="1" style="stop-color:rgb(21,101,192);stop-opacity:1"/></linearGradient>
        <linearGradient id="_Linear3" x1="0" y1="0" x2="1" y2="0" gradientUnits="userSpaceOnUse" gradientTransform="matrix(41.9212,5.511,-5.511,41.9212,72.5338,105.322)"><stop offset="0" style="stop-color:rgb(255,224,130);stop-opacity:1"/><stop offset="1" style="stop-color:rgb(255,167,38);stop-opacity:1"/></linearGradient>
        <linearGradient id="_Linear4" x1="0" y1="0" x2="1" y2="0" gradientUnits="userSpaceOnUse" gradientTransform="matrix(2.99,-228.86,228.86,2.99,9427.78,2544.52)"><stop offset="0" style="stop-color:rgb(255,224,130);stop-opacity:1"/><stop offset="1" style="stop-color:rgb(255,167,38);stop-opacity:1"/></linearGradient>
        <linearGradient id="_Linear5" x1="0" y1="0" x2="1" y2="0" gradientUnits="userSpaceOnUse" gradientTransform="matrix(793.2,0,0,793.2,14997.3,4075.82)"><stop offset="0" style="stop-color:rgb(255,224,130);stop-opacity:1"/><stop offset="1" style="stop-color:rgb(255,167,38);stop-opacity:1"/></linearGradient>
        <linearGradient id="_Linear6" x1="0" y1="0" x2="1" y2="0" gradientUnits="userSpaceOnUse" gradientTransform="matrix(5899.1,5670,-5670,5899.1,42958.6,15103.6)"><stop offset="0" style="stop-color:rgb(66,165,245);stop-opacity:1"/><stop offset="1" style="stop-color:rgb(21,101,192);stop-opacity:1"/></linearGradient>
        <linearGradient id="_Linear7" x1="0" y1="0" x2="1" y2="0" gradientUnits="userSpaceOnUse" gradientTransform="matrix(-403.4,-2518.63,2518.63,-403.4,23019.9,12265.9)"><stop offset="0" style="stop-color:rgb(255,224,130);stop-opacity:1"/><stop offset="1" style="stop-color:rgb(255,167,38);stop-opacity:1"/></linearGradient>
    </defs>
</svg>
