<?xml version="1.0" encoding="UTF-8" standalone="no"?>
<!DOCTYPE svg PUBLIC "-//W3C//DTD SVG 1.1//EN" "http://www.w3.org/Graphics/SVG/1.1/DTD/svg11.dtd">
<svg width="100%" height="100%" viewBox="0 0 273 197" version="1.1" xmlns="http://www.w3.org/2000/svg" xmlns:xlink="http://www.w3.org/1999/xlink" xml:space="preserve" xmlns:serif="http://www.serif.com/" style="fill-rule:evenodd;clip-rule:evenodd;">
    <g transform="matrix(1,0,0,1,11,-10)">
        <path d="M85.423,10L57.992,10C54.207,10 51.138,13.048 51.138,16.807L51.138,44.049C51.138,47.809 54.207,50.856 57.992,50.856L85.423,50.856C89.208,50.856 92.276,47.809 92.276,44.049L92.276,16.807C92.276,13.048 89.208,10 85.423,10Z" style="fill:rgb(86,204,242);fill-rule:nonzero;"/>
    </g>
    <g transform="matrix(1,0,0,1,11,-10)">
        <path d="M83.104,35.298C83.104,32.869 81.133,30.898 78.704,30.898L65.4,30.898C62.972,30.898 61,32.869 61,35.298L61,38.232C61,40.66 62.972,42.632 65.4,42.632L78.704,42.632C81.133,42.632 83.104,40.66 83.104,38.232L83.104,35.298Z" style="fill:white;"/>
    </g>
    <g transform="matrix(1,0,0,1,11,-10)">
        <path d="M65.496,30.898C65.496,30.898 64.518,18 72.048,18C79.578,18 79.035,30.91 79.035,30.91" style="fill:none;fill-rule:nonzero;stroke:white;stroke-width:1.9px;"/>
    </g>
    <g transform="matrix(1,0,0,1,11,-10)">
        <path d="M227.284,113L199.854,113C196.069,113 193,116.048 193,119.807L193,147.049C193,150.809 196.069,153.856 199.854,153.856L227.284,153.856C231.07,153.856 234.138,150.809 234.138,147.049L234.138,119.807C234.138,116.048 231.07,113 227.284,113Z" style="fill:rgb(242,201,76);fill-rule:nonzero;"/>
    </g>
    <g transform="matrix(1,0,0,1,11,-10)">
        <path d="M220.062,130.37L222.734,121.273C223.056,120.558 222.997,119.725 222.578,119.063C222.158,118.401 221.436,118.001 220.66,118L218.17,118L217.34,119.851C216.732,121.18 215.419,122.03 213.975,122.03C212.531,122.03 211.218,121.18 210.61,119.851L209.78,118L207.768,118C206.891,118 206.074,118.452 205.599,119.2C205.125,119.948 205.059,120.89 205.423,121.698L207.913,130.37L204.178,142.572C203.799,143.843 204.033,145.221 204.81,146.289C205.586,147.358 206.815,147.992 208.124,148L219.88,148C221.188,147.991 222.416,147.356 223.192,146.288C223.968,145.219 224.201,143.842 223.822,142.572L220.062,130.37Z" style="fill:white;fill-rule:nonzero;"/>
    </g>
    <g transform="matrix(1,0,0,1,11,-10)">
        <path d="M44.284,113L16.854,113C13.069,113 10,116.048 10,119.807L10,147.049C10,150.809 13.069,153.856 16.854,153.856L44.284,153.856C48.07,153.856 51.138,150.809 51.138,147.049L51.138,119.807C51.138,116.048 48.07,113 44.284,113Z" style="fill:rgb(245,138,138);fill-rule:nonzero;"/>
    </g>
    <g transform="matrix(1,0,0,1,11,-10)">
        <path d="M39.313,135.625C37.569,135.627 35.862,136.124 34.391,137.058C32.919,137.992 31.743,139.325 31,140.902C30.257,139.325 29.081,137.992 27.609,137.058C26.138,136.124 24.431,135.627 22.688,135.625L17.875,135.625L17.875,136.5C17.875,141.566 21.997,145.688 27.063,145.688L34.938,145.688C40.004,145.688 44.125,141.566 44.125,136.5L44.125,135.625L39.313,135.625ZM27.063,143.938C23.257,143.938 20.11,141.065 19.676,137.375L22.688,137.375C26.493,137.375 29.64,140.247 30.074,143.938L27.063,143.938ZM34.938,143.938L31.926,143.938C32.36,140.247 35.507,137.375 39.313,137.375L42.324,137.375C41.89,141.065 38.743,143.938 34.938,143.938Z" style="fill:white;fill-rule:nonzero;"/>
    </g>
    <g transform="matrix(1,0,0,1,11,-10)">
        <path d="M26.255,133.37C26.42,134.354 26.89,135.262 27.597,135.966L27.853,136.222L28.216,136.222C29.214,136.225 30.187,135.915 31,135.336C31.813,135.915 32.786,136.225 33.784,136.222L34.147,136.222L34.403,135.966C35.111,135.262 35.58,134.355 35.745,133.371C36.729,133.205 37.637,132.736 38.341,132.028L38.597,131.772L38.597,131.41C38.6,130.412 38.29,129.438 37.711,128.625C38.29,127.812 38.6,126.839 38.597,125.841L38.597,125.478L38.341,125.222C37.637,124.515 36.73,124.045 35.746,123.88C35.58,122.896 35.111,121.988 34.403,121.285L34.147,121.028L33.785,121.028C32.787,121.025 31.813,121.335 31,121.914C30.187,121.335 29.214,121.025 28.216,121.028L27.853,121.028L27.597,121.284C26.89,121.988 26.42,122.895 26.255,123.879C25.271,124.045 24.363,124.514 23.66,125.222L23.403,125.478L23.403,125.841C23.4,126.838 23.71,127.812 24.289,128.625C23.71,129.438 23.4,130.411 23.403,131.409L23.403,131.772L23.659,132.028C24.363,132.736 25.27,133.205 26.255,133.37ZM26.05,128.006C25.565,127.524 25.257,126.892 25.175,126.213C25.713,125.79 26.378,125.561 27.063,125.563L27.938,125.563L27.938,124.688C27.936,124.003 28.165,123.338 28.587,122.801C29.267,122.882 29.899,123.19 30.381,123.676L31,124.294L31.619,123.675C32.101,123.19 32.733,122.882 33.412,122.8C33.836,123.338 34.065,124.003 34.063,124.688L34.063,125.563L34.938,125.563C35.622,125.561 36.287,125.79 36.825,126.212C36.743,126.892 36.435,127.524 35.95,128.006L35.331,128.625L35.95,129.244C36.435,129.726 36.744,130.358 36.825,131.038C36.287,131.461 35.622,131.69 34.938,131.688L34.063,131.688L34.063,132.563C34.065,133.247 33.836,133.912 33.413,134.45C32.733,134.368 32.101,134.06 31.619,133.575L31,132.956L30.381,133.575C29.899,134.06 29.267,134.368 28.587,134.45C28.165,133.912 27.936,133.247 27.938,132.563L27.938,131.688L27.063,131.688C26.378,131.69 25.713,131.461 25.176,131.038C25.257,130.358 25.565,129.726 26.051,129.244L26.669,128.625L26.05,128.006Z" style="fill:white;fill-rule:nonzero;"/>
    </g>
    <g transform="matrix(1,0,0,1,11,-10)">
        <path d="M182.284,10L154.854,10C151.069,10 148,13.048 148,16.807L148,44.049C148,47.809 151.069,50.856 154.854,50.856L182.284,50.856C186.07,50.856 189.138,47.809 189.138,44.049L189.138,16.807C189.138,13.048 186.07,10 182.284,10Z" style="fill:rgb(111,207,151);fill-rule:nonzero;"/>
    </g>
    <g transform="matrix(1,0,0,1,11,-10)">
        <path d="M175.122,16C170.808,17.346 166.188,17.346 161.874,16C161.395,17.125 160,20.662 160,23.972C160,28.522 161.464,41.251 161.464,41.251C161.464,41.251 164.476,43.939 168.5,44C172.52,43.931 175.532,41.243 175.532,41.243C175.532,41.243 177,28.506 177,23.964C177,20.662 175.601,17.125 175.122,16Z" style="fill:white;fill-rule:nonzero;"/>
    </g>
</svg>
