<?xml version="1.0" encoding="UTF-8" standalone="no"?>
<!DOCTYPE svg PUBLIC "-//W3C//DTD SVG 1.1//EN" "http://www.w3.org/Graphics/SVG/1.1/DTD/svg11.dtd">
<svg width="100%" height="100%" viewBox="0 0 273 138" version="1.1" xmlns="http://www.w3.org/2000/svg" xmlns:xlink="http://www.w3.org/1999/xlink" xml:space="preserve" xmlns:serif="http://www.serif.com/" style="fill-rule:evenodd;clip-rule:evenodd;stroke-linejoin:round;stroke-miterlimit:2;">
    <g transform="matrix(1,0,0,1,21.0218,-59.6911)">
        <path d="M178.522,125.763C178.53,134.946 176.606,144.029 172.874,152.431C169.141,160.833 163.682,168.367 156.847,174.552C154.946,176.274 152.947,177.886 150.86,179.382C148.182,181.301 145.363,183.017 142.427,184.517L142.396,184.517C141.77,184.844 141.134,185.154 140.493,185.455C140.2,185.598 139.913,185.73 139.615,185.863C137.758,186.708 135.853,187.467 133.9,188.14C132.361,188.649 130.781,189.159 129.186,189.577C119.983,192.008 110.363,192.458 100.97,190.896C99.857,190.713 98.759,190.504 97.667,190.265L96.743,190.056C93.956,189.409 91.214,188.582 88.535,187.58C86.979,186.999 85.454,186.362 83.959,185.669C83.379,185.399 82.8,185.124 82.23,184.838C81.84,184.645 81.456,184.446 81.071,184.247C70.632,178.803 61.839,170.702 55.59,160.772C49.341,150.843 45.862,139.442 45.508,127.738C45.155,116.034 47.94,104.447 53.578,94.163C59.216,83.88 67.505,75.269 77.596,69.213C87.686,63.157 99.217,59.874 111.005,59.699C122.794,59.524 134.418,62.463 144.687,68.217C154.955,73.971 163.5,82.331 169.445,92.443C175.39,102.554 178.523,114.054 178.522,125.763Z" style="fill:url(#_Linear1);fill-rule:nonzero;"/>
    </g>
    <g transform="matrix(1,0,0,1,21.0218,-59.6911)">
        <path d="M129.432,130.542C133.669,134.873 146.012,151.727 146.012,151.727L138.43,162.767L131.612,140.834L129.432,130.542Z" style="fill:url(#_Linear2);fill-rule:nonzero;"/>
    </g>
    <g transform="matrix(1,0,0,1,21.0218,-59.6911)">
        <path d="M142.396,184.553C141.77,184.879 141.134,185.19 140.492,185.491C140.2,185.633 139.913,185.766 139.615,185.898C137.758,186.744 135.853,187.503 133.9,188.176C132.361,188.685 130.781,189.195 129.186,189.612C119.983,192.044 110.363,192.494 100.97,190.932C99.857,190.749 98.759,190.54 97.667,190.3C93.665,193.041 89.971,195.359 87.524,196.414L87.724,194.718L88.556,187.62L90.479,171.108L98.103,163.786L80.963,165.106C80.963,165.106 82.764,140.294 89.792,135.189C96.82,130.083 104.192,125.508 104.192,125.508C105.071,126.084 106.04,126.513 107.06,126.777C109.497,127.446 112.031,127.703 114.555,127.536C117.561,127.398 120.567,124.622 120.711,124.479C120.711,124.479 125.431,125.411 129.432,130.562C131.428,133.214 132.861,136.24 133.644,139.458C134.629,143.223 136.378,152.017 138.369,162.64C139.672,169.477 141.041,177.059 142.396,184.553Z" style="fill:url(#_Linear3);fill-rule:nonzero;"/>
    </g>
    <g transform="matrix(1,0,0,1,21.0218,-59.6911)">
        <path d="M146.012,151.747L153.328,160.261L179.055,134.898L180.03,129.706L185.16,125.279L182.877,132.03L182.877,140.823C182.877,140.823 163.034,172.769 157.565,174.414C151.168,176.345 138.44,162.757 138.44,162.757L146.012,151.747Z" style="fill:url(#_Linear4);fill-rule:nonzero;"/>
    </g>
    <g transform="matrix(1,0,0,1,21.0218,-59.6911)">
        <path d="M119.305,163.389L125.272,177.655L132.982,174.363L127.329,160.403L119.305,163.389Z" style="fill:rgb(126,87,194);fill-rule:nonzero;"/>
    </g>
    <g transform="matrix(1,0,0,1,21.0218,-59.6911)">
        <path d="M127.616,172.606C126.657,173.39 125.225,173.207 123.45,173.298C121.066,173.361 118.778,174.251 116.986,175.815C114.601,177.807 107.932,183.02 101.263,187.778C100.052,188.639 98.841,189.49 97.672,190.326C93.67,193.067 89.977,195.385 87.53,196.439C86.886,196.757 86.192,196.958 85.478,197.036C82.051,197.122 81.317,189.989 81.107,184.298C81.04,182.408 81.025,180.681 80.989,179.433C80.845,174.44 80.989,165.167 80.989,165.167L98.128,163.842L96.312,175.632L95.994,177.716L95.994,177.731L101.124,175.846L101.283,175.79L119.495,169.07L120.752,166.915L121.552,168.952L121.629,168.952L129.427,167.934C129.427,167.934 129.56,171.021 127.616,172.606Z" style="fill:url(#_Linear5);fill-rule:nonzero;"/>
    </g>
    <g transform="matrix(1,0,0,1,21.0218,-59.6911)">
        <path d="M123.681,98.25C123.235,97.038 122.85,96.212 122.737,95.968L122.737,95.907C122.737,95.907 122.342,96.875 119.367,96.64C116.391,96.406 115.406,94.939 115.406,94.939C115.406,94.939 116.34,98.118 112.795,99.478C109.384,100.793 108.04,99.942 107.947,99.881C108.127,100.074 110.794,102.907 109.025,105.154C107.193,107.482 103.074,107.024 103.074,107.024L103.074,107.054C103.592,108.22 104.173,109.358 104.813,110.463C105.151,111.044 105.485,111.579 105.839,112.078L105.839,112.114C106.747,113.581 107.974,114.829 109.43,115.767C108.79,119.495 106.953,122.918 104.192,125.523C105.121,126.005 106.078,126.428 107.06,126.792C108.973,127.51 111.543,128.224 113.837,128.025C116.494,127.743 118.949,126.486 120.721,124.499L119.546,120.021L118.49,115.986C128.042,113.566 125.415,103.04 123.681,98.25ZM117.956,116.133L118.125,116.093L118.397,116.016C118.002,116.186 117.584,116.299 117.156,116.353C117.376,116.296 117.602,116.235 117.838,116.164L117.956,116.133Z" style="fill:url(#_Linear6);fill-rule:nonzero;"/>
    </g>
    <g transform="matrix(1,0,0,1,21.0218,-59.6911)">
        <path d="M129.432,95.774C125.492,99.371 123.789,98.357 123.681,98.26L123.681,98.25C123.235,97.038 122.85,96.212 122.742,95.968L122.717,95.907C122.717,95.907 122.317,96.875 119.341,96.64C116.366,96.406 115.386,94.939 115.386,94.939C115.386,94.939 116.319,98.118 112.775,99.478C109.358,100.793 108.014,99.942 107.927,99.881C108.106,100.069 110.774,102.902 109.004,105.149C107.173,107.477 103.053,107.024 103.053,107.024L103.053,107.049C103.571,108.217 104.152,109.356 104.792,110.463C105.134,111.04 105.476,111.579 105.818,112.078L105.818,112.114C105.818,112.114 104.413,114.86 101.904,114.804C99.395,114.748 99.339,112.256 99.339,112.256C99.339,112.256 97.564,115.435 92.08,112.373C86.596,109.311 90.254,104.874 90.254,104.874C90.254,104.874 86.365,101.919 86.365,97.491C86.365,93.064 92.418,89.696 92.418,89.696C92.418,89.696 90.254,84.555 93.906,81.722C97.559,78.89 103.048,80.81 103.048,80.81C103.048,80.81 102.94,74.233 108.532,74.34C114.124,74.447 115.391,77.845 115.391,77.845C115.391,77.845 120.418,73.983 125.395,77.621C130.371,81.259 128.324,87.602 128.324,87.602C128.324,87.602 133.541,92.03 129.432,95.774Z" style="fill:url(#_Linear7);fill-rule:nonzero;"/>
    </g>
    <g transform="matrix(1,0,0,1,21.0218,-59.6911)">
        <path d="M119.587,120.006C117.202,119.257 112.959,116.398 112.959,116.398C114.634,116.574 116.325,116.485 117.971,116.134L118.141,116.093L118.469,115.996L118.515,115.996L119.587,120.006Z" style="fill-opacity:0.15;fill-rule:nonzero;"/>
    </g>
    <g transform="matrix(1,0,0,1,21.0218,-59.6911)">
        <path d="M100.416,148.547L98.103,163.832L96.287,175.622L92.059,179.112L101.258,175.795C101.258,175.795 98.872,169.029 100.416,148.547Z" style="fill-opacity:0.15;fill-rule:nonzero;"/>
    </g>
    <g transform="matrix(1,0,0,1,21.0218,-59.6911)">
        <path d="M97.656,190.3C98.749,190.54 99.847,190.749 100.96,190.932C101.017,189.888 101.119,188.833 101.263,187.778L97.656,190.3Z" style="fill-opacity:0.15;fill-rule:nonzero;"/>
    </g>
    <defs>
        <linearGradient id="_Linear1" x1="0" y1="0" x2="1" y2="0" gradientUnits="userSpaceOnUse" gradientTransform="matrix(-2.244,130.211,-130.211,-2.244,112.273,66.8651)"><stop offset="0" style="stop-color:white;stop-opacity:0"/><stop offset="1" style="stop-color:rgb(100,181,246);stop-opacity:0.6"/></linearGradient>
        <linearGradient id="_Linear2" x1="0" y1="0" x2="1" y2="0" gradientUnits="userSpaceOnUse" gradientTransform="matrix(18.15,32.114,-32.114,18.15,124.41,126.165)"><stop offset="0" style="stop-color:rgb(229,115,115);stop-opacity:1"/><stop offset="1" style="stop-color:rgb(173,20,87);stop-opacity:1"/></linearGradient>
        <linearGradient id="_Linear3" x1="0" y1="0" x2="1" y2="0" gradientUnits="userSpaceOnUse" gradientTransform="matrix(-1912,9501.4,-9501.4,-1912,28131.2,39784.5)"><stop offset="0" style="stop-color:rgb(229,115,115);stop-opacity:1"/><stop offset="1" style="stop-color:rgb(173,20,87);stop-opacity:1"/></linearGradient>
        <linearGradient id="_Linear4" x1="0" y1="0" x2="1" y2="0" gradientUnits="userSpaceOnUse" gradientTransform="matrix(-49.533,28.893,-28.893,-49.533,192.122,137.94)"><stop offset="0" style="stop-color:rgb(255,248,225);stop-opacity:1"/><stop offset="1" style="stop-color:rgb(255,204,128);stop-opacity:1"/></linearGradient>
        <linearGradient id="_Linear5" x1="0" y1="0" x2="1" y2="0" gradientUnits="userSpaceOnUse" gradientTransform="matrix(-2670.7,-1813.2,1813.2,-2670.7,21642.4,22309.6)"><stop offset="0" style="stop-color:rgb(255,248,225);stop-opacity:1"/><stop offset="1" style="stop-color:rgb(255,204,128);stop-opacity:1"/></linearGradient>
        <linearGradient id="_Linear6" x1="0" y1="0" x2="1" y2="0" gradientUnits="userSpaceOnUse" gradientTransform="matrix(-27.042,11.213,-11.213,-27.042,128.704,103.439)"><stop offset="0" style="stop-color:rgb(255,248,225);stop-opacity:1"/><stop offset="1" style="stop-color:rgb(255,204,128);stop-opacity:1"/></linearGradient>
        <linearGradient id="_Linear7" x1="0" y1="0" x2="1" y2="0" gradientUnits="userSpaceOnUse" gradientTransform="matrix(-31.433,42.7647,-42.7647,-31.433,122.486,74.1463)"><stop offset="0" style="stop-color:rgb(255,183,77);stop-opacity:1"/><stop offset="1" style="stop-color:rgb(244,81,30);stop-opacity:1"/></linearGradient>
    </defs>
</svg>
