<svg width="255" height="174" viewBox="0 0 255 174" fill="none" xmlns="http://www.w3.org/2000/svg">
<g filter="url(#filter0_d_1_212)">
<path d="M85.4225 10H57.992C54.2067 10 51.1382 13.0475 51.1382 16.8068V44.0493C51.1382 47.8086 54.2067 50.8561 57.992 50.8561H85.4225C89.2078 50.8561 92.2763 47.8086 92.2763 44.0493V16.8068C92.2763 13.0475 89.2078 10 85.4225 10Z" fill="#56CCF2"/>
</g>
<rect x="61" y="30.8976" width="22.1043" height="11.7344" rx="4.4" fill="white"/>
<path d="M65.4964 30.8976C65.4964 30.8976 64.5182 18 72.048 18C79.5778 18 79.0352 30.9099 79.0352 30.9099" stroke="white" stroke-width="1.9"/>
<g filter="url(#filter1_d_1_212)">
<path d="M227.284 113H199.854C196.069 113 193 116.048 193 119.807V147.049C193 150.809 196.069 153.856 199.854 153.856H227.284C231.07 153.856 234.138 150.809 234.138 147.049V119.807C234.138 116.048 231.07 113 227.284 113Z" fill="#F2C94C"/>
</g>
<path d="M220.062 130.37L222.734 121.273C223.056 120.558 222.997 119.725 222.578 119.063C222.158 118.401 221.436 118.001 220.66 118H218.17L217.34 119.851C216.732 121.18 215.419 122.03 213.975 122.03C212.531 122.03 211.218 121.18 210.61 119.851L209.78 118H207.768C206.891 118 206.074 118.452 205.599 119.2C205.125 119.948 205.059 120.89 205.423 121.698L207.913 130.37L204.178 142.572C203.799 143.843 204.033 145.221 204.81 146.289C205.586 147.358 206.815 147.992 208.124 148H219.88C221.188 147.991 222.416 147.356 223.192 146.288C223.968 145.219 224.201 143.842 223.822 142.572L220.062 130.37Z" fill="white"/>
<g filter="url(#filter2_d_1_212)">
<path d="M44.2844 113H16.8538C13.0685 113 10 116.048 10 119.807V147.049C10 150.809 13.0685 153.856 16.8538 153.856H44.2844C48.0696 153.856 51.1381 150.809 51.1381 147.049V119.807C51.1381 116.048 48.0696 113 44.2844 113Z" fill="#F58A8A"/>
</g>
<path d="M39.3125 135.625C37.5693 135.627 35.8624 136.124 34.3908 137.058C32.9191 137.992 31.7432 139.325 31 140.902C30.2568 139.325 29.0809 137.992 27.6092 137.058C26.1376 136.124 24.4307 135.627 22.6875 135.625H17.875V136.5C17.875 141.566 21.9965 145.688 27.0625 145.688H34.9375C40.0035 145.688 44.125 141.566 44.125 136.5V135.625H39.3125ZM27.0625 143.938C23.2573 143.938 20.1104 141.065 19.6762 137.375H22.6875C26.4927 137.375 29.6396 140.247 30.0738 143.938H27.0625ZM34.9375 143.938H31.9262C32.3604 140.247 35.5073 137.375 39.3125 137.375H42.3238C41.8896 141.065 38.7427 143.938 34.9375 143.938Z" fill="white"/>
<path d="M26.2546 133.37C26.4201 134.354 26.8895 135.262 27.597 135.966L27.8533 136.222H28.2158C29.2136 136.225 30.1872 135.915 31 135.336C31.8128 135.915 32.7864 136.225 33.7843 136.222H34.1467L34.403 135.966C35.1105 135.262 35.5799 134.355 35.7454 133.371C36.7294 133.205 37.6369 132.736 38.3405 132.028L38.5967 131.772V131.41C38.5996 130.412 38.2898 129.438 37.711 128.625C38.2899 127.812 38.5997 126.839 38.597 125.841V125.478L38.3407 125.222C37.6371 124.515 36.7296 124.045 35.7456 123.88C35.5801 122.896 35.1107 121.988 34.4032 121.285L34.1469 121.028H33.7845C32.7866 121.025 31.8129 121.335 31 121.914C30.1872 121.335 29.2136 121.025 28.2158 121.028H27.8533L27.597 121.284C26.8895 121.988 26.4201 122.895 26.2546 123.879C25.2706 124.045 24.3631 124.514 23.6595 125.222L23.4033 125.478V125.841C23.4004 126.838 23.7102 127.812 24.289 128.625C23.7101 129.438 23.4003 130.411 23.403 131.409V131.772L23.6593 132.028C24.363 132.736 25.2705 133.205 26.2546 133.37V133.37ZM26.0503 128.006C25.565 127.524 25.2567 126.892 25.1753 126.213C25.7132 125.79 26.3782 125.561 27.0625 125.563H27.9375V124.688C27.9355 124.003 28.1645 123.338 28.5874 122.801C29.2668 122.882 29.8988 123.19 30.3812 123.676L31 124.294L31.6187 123.675C32.101 123.19 32.7331 122.882 33.4124 122.8C33.8355 123.338 34.0645 124.003 34.0625 124.688V125.563H34.9375C35.6217 125.561 36.2866 125.79 36.8245 126.212C36.7431 126.892 36.4348 127.524 35.9495 128.006L35.3313 128.625L35.95 129.244C36.4353 129.726 36.7436 130.358 36.825 131.038C36.287 131.461 35.6219 131.69 34.9375 131.688H34.0625V132.563C34.0645 133.247 33.8355 133.912 33.4126 134.45C32.7332 134.368 32.1012 134.06 31.6188 133.575L31 132.956L30.3813 133.575C29.8989 134.06 29.2669 134.368 28.5875 134.45C28.1645 133.912 27.9355 133.247 27.9375 132.563V131.688H27.0625C26.3783 131.69 25.7134 131.461 25.1755 131.038C25.2569 130.358 25.5652 129.726 26.0505 129.244L26.6688 128.625L26.0503 128.006Z" fill="white"/>
<g filter="url(#filter3_d_1_212)">
<path d="M182.284 10H154.854C151.069 10 148 13.0475 148 16.8068V44.0493C148 47.8086 151.069 50.8561 154.854 50.8561H182.284C186.07 50.8561 189.138 47.8086 189.138 44.0493V16.8068C189.138 13.0475 186.07 10 182.284 10Z" fill="#6FCF97"/>
</g>
<path d="M175.122 16C170.808 17.3464 166.188 17.3464 161.874 16C161.395 17.1251 160 20.6615 160 23.9715C160 28.5217 161.464 41.2507 161.464 41.2507C161.464 41.2507 164.476 43.9386 168.5 44C172.52 43.9309 175.532 41.243 175.532 41.243C175.532 41.243 177 28.5063 177 23.9638C177 20.6615 175.601 17.1251 175.122 16Z" fill="white"/>
<defs>
<filter id="filter0_d_1_212" x="41.1382" y="0" width="71.1381" height="70.8561" filterUnits="userSpaceOnUse" color-interpolation-filters="sRGB">
<feFlood flood-opacity="0" result="BackgroundImageFix"/>
<feColorMatrix in="SourceAlpha" type="matrix" values="0 0 0 0 0 0 0 0 0 0 0 0 0 0 0 0 0 0 127 0" result="hardAlpha"/>
<feOffset dx="5" dy="5"/>
<feGaussianBlur stdDeviation="7.5"/>
<feColorMatrix type="matrix" values="0 0 0 0 0 0 0 0 0 0 0 0 0 0 0 0 0 0 0.15 0"/>
<feBlend mode="normal" in2="BackgroundImageFix" result="effect1_dropShadow_1_212"/>
<feBlend mode="normal" in="SourceGraphic" in2="effect1_dropShadow_1_212" result="shape"/>
</filter>
<filter id="filter1_d_1_212" x="183" y="103" width="71.1381" height="70.8561" filterUnits="userSpaceOnUse" color-interpolation-filters="sRGB">
<feFlood flood-opacity="0" result="BackgroundImageFix"/>
<feColorMatrix in="SourceAlpha" type="matrix" values="0 0 0 0 0 0 0 0 0 0 0 0 0 0 0 0 0 0 127 0" result="hardAlpha"/>
<feOffset dx="5" dy="5"/>
<feGaussianBlur stdDeviation="7.5"/>
<feColorMatrix type="matrix" values="0 0 0 0 0 0 0 0 0 0 0 0 0 0 0 0 0 0 0.15 0"/>
<feBlend mode="normal" in2="BackgroundImageFix" result="effect1_dropShadow_1_212"/>
<feBlend mode="normal" in="SourceGraphic" in2="effect1_dropShadow_1_212" result="shape"/>
</filter>
<filter id="filter2_d_1_212" x="0" y="103" width="71.1381" height="70.8561" filterUnits="userSpaceOnUse" color-interpolation-filters="sRGB">
<feFlood flood-opacity="0" result="BackgroundImageFix"/>
<feColorMatrix in="SourceAlpha" type="matrix" values="0 0 0 0 0 0 0 0 0 0 0 0 0 0 0 0 0 0 127 0" result="hardAlpha"/>
<feOffset dx="5" dy="5"/>
<feGaussianBlur stdDeviation="7.5"/>
<feColorMatrix type="matrix" values="0 0 0 0 0 0 0 0 0 0 0 0 0 0 0 0 0 0 0.15 0"/>
<feBlend mode="normal" in2="BackgroundImageFix" result="effect1_dropShadow_1_212"/>
<feBlend mode="normal" in="SourceGraphic" in2="effect1_dropShadow_1_212" result="shape"/>
</filter>
<filter id="filter3_d_1_212" x="138" y="0" width="71.1381" height="70.8561" filterUnits="userSpaceOnUse" color-interpolation-filters="sRGB">
<feFlood flood-opacity="0" result="BackgroundImageFix"/>
<feColorMatrix in="SourceAlpha" type="matrix" values="0 0 0 0 0 0 0 0 0 0 0 0 0 0 0 0 0 0 127 0" result="hardAlpha"/>
<feOffset dx="5" dy="5"/>
<feGaussianBlur stdDeviation="7.5"/>
<feColorMatrix type="matrix" values="0 0 0 0 0 0 0 0 0 0 0 0 0 0 0 0 0 0 0.15 0"/>
<feBlend mode="normal" in2="BackgroundImageFix" result="effect1_dropShadow_1_212"/>
<feBlend mode="normal" in="SourceGraphic" in2="effect1_dropShadow_1_212" result="shape"/>
</filter>
</defs>
</svg>
