<svg aria-hidden="true" style="position: absolute; width: 0; height: 0; overflow: hidden;" version="1.1" xmlns="http://www.w3.org/2000/svg" xmlns:xlink="http://www.w3.org/1999/xlink">
<defs>
<symbol id="icon-arrow" viewBox="0 0 24 24">
<path d="M12 4L10.59 5.41L16.17 11H4V13H16.17L10.59 18.59L12 20L20 12L12 4Z" />
</symbol>


<symbol id="icon-app-store" viewBox="0 0 121 32">
<path fill="#fff" style="fill: var(--colorText, #fff)" d="M21.84 14.79c0.035 3.915 3.472 5.208 3.514 5.223-0.020 0.091-0.539 1.867-1.828 3.67-1.076 1.588-2.204 3.14-3.996 3.169-1.74 0.039-2.325-1.011-4.322-1.011-2.014 0-2.638 0.982-4.308 1.050-1.707 0.062-3.010-1.695-4.125-3.268-2.23-3.213-3.966-9.054-1.638-13.029 1.128-1.949 3.185-3.205 5.382-3.238 1.709-0.034 3.294 1.138 4.344 1.138 1.029 0 2.989-1.402 5.011-1.193 0.845 0.025 3.251 0.33 4.804 2.562-0.126 0.075-2.867 1.663-2.837 4.928zM18.553 5.188c-0.937 1.090-2.436 1.924-3.895 1.816-0.191-1.471 0.548-3.035 1.377-3.99 0.935-1.083 2.561-1.912 3.86-1.969 0.17 1.529-0.444 3.035-1.342 4.143zM42.004 21.044l-1.156-3.522c-0.123-0.359-0.352-1.206-0.69-2.54h-0.042c-0.204 0.85-0.421 1.696-0.649 2.54l-1.135 3.522h3.671zM45.999 26.665h-2.333l-1.277-3.96h-4.442l-1.218 3.96h-2.271l4.401-13.483h2.718l4.422 13.483zM55.086 21.764c0-0.947-0.216-1.726-0.65-2.34-0.474-0.641-1.11-0.961-1.907-0.961-0.54 0-1.032 0.179-1.47 0.531-0.439 0.355-0.727 0.817-0.861 1.39-0.068 0.268-0.102 0.486-0.102 0.659v1.621c0 0.708 0.22 1.305 0.66 1.792s1.011 0.731 1.714 0.731c0.825 0 1.467-0.315 1.926-0.94 0.46-0.628 0.691-1.454 0.691-2.482zM57.316 21.684c0 1.653-0.452 2.961-1.358 3.92-0.812 0.854-1.82 1.281-3.023 1.281-1.298 0-2.231-0.46-2.799-1.38h-0.041v5.122h-2.19v-10.484c0-1.039-0.028-2.106-0.082-3.2h1.927l0.122 1.54h0.042c0.73-1.161 1.838-1.74 3.326-1.74 1.163 0 2.133 0.453 2.909 1.36 0.78 0.908 1.167 2.101 1.167 3.581zM66.424 21.764c0-0.947-0.217-1.726-0.651-2.34-0.474-0.641-1.107-0.961-1.906-0.961-0.541 0-1.031 0.179-1.471 0.531-0.439 0.355-0.726 0.817-0.86 1.39-0.067 0.268-0.101 0.486-0.101 0.659v1.621c0 0.708 0.22 1.305 0.657 1.792 0.44 0.485 1.011 0.731 1.716 0.731 0.824 0 1.467-0.315 1.925-0.94 0.46-0.628 0.691-1.454 0.691-2.482zM68.655 21.684c0 1.653-0.453 2.961-1.36 3.92-0.811 0.854-1.819 1.281-3.021 1.281-1.298 0-2.232-0.46-2.799-1.38h-0.040v5.122h-2.191v-10.484c0-1.039-0.027-2.106-0.081-3.2h1.926l0.123 1.54h0.041c0.73-1.161 1.838-1.74 3.326-1.74 1.162 0 2.132 0.453 2.911 1.36 0.776 0.908 1.165 2.101 1.165 3.581zM81.332 22.884v0c0-0.932-0.276-1.713-0.83-2.338-0.556-0.626-1.42-1.172-2.596-1.639-0.962-0.374-1.624-0.72-1.989-1.041-0.418-0.347-0.627-0.787-0.627-1.32 0-0.482 0.182-0.887 0.548-1.221 0.431-0.372 1.033-0.56 1.804-0.56 0.975 0 1.845 0.207 2.616 0.62l0.548-1.762c-0.826-0.427-1.859-0.64-3.103-0.64-1.395 0-2.511 0.354-3.347 1.061-0.839 0.708-1.259 1.617-1.259 2.725 0 1.696 1.196 2.986 3.589 3.866 0.88 0.321 1.509 0.669 1.886 1.044 0.379 0.373 0.568 0.834 0.568 1.381 0 0.614-0.229 1.107-0.688 1.474-0.461 0.366-1.104 0.551-1.928 0.551-1.149 0-2.204-0.288-3.166-0.861l-0.508 1.8c0.892 0.561 2.072 0.841 3.543 0.841 1.593 0 2.833-0.394 3.724-1.18 0.811-0.721 1.214-1.654 1.214-2.801zM88.573 18.564v-1.623h-2.414v-2.42l-2.152 0.639v1.781h-1.437v1.62h1.438v4.9c0 1.228 0.244 2.101 0.731 2.621 0.488 0.52 1.164 0.78 2.028 0.78 0.704 0 1.272-0.080 1.704-0.239l-0.061-1.64c-0.257 0.067-0.581 0.1-0.972 0.1-0.853 0-1.278-0.599-1.278-1.8v-4.72h2.414zM97.193 21.795c0-0.897-0.194-1.666-0.588-2.308-0.459-0.775-1.116-1.163-1.966-1.163-0.88 0-1.548 0.388-2.008 1.163-0.394 0.644-0.588 1.424-0.588 2.348 0 0.897 0.194 1.666 0.588 2.306 0.473 0.776 1.135 1.164 1.988 1.164 0.836 0 1.492-0.396 1.966-1.184 0.404-0.653 0.607-1.43 0.607-2.325zM99.465 21.724c0 1.494-0.433 2.721-1.298 3.681-0.908 0.988-2.111 1.48-3.612 1.48-1.446 0-2.598-0.473-3.457-1.42s-1.288-2.14-1.288-3.58c0-1.507 0.443-2.74 1.329-3.7 0.884-0.96 2.077-1.441 3.579-1.441 1.446 0 2.61 0.473 3.489 1.42 0.84 0.919 1.259 2.106 1.259 3.559v0.001zM106.585 18.843v-2.060c-0.163-0.025-0.345-0.039-0.548-0.039-0.568 0-1.095 0.173-1.583 0.521-0.5 0.386-0.864 0.9-1.095 1.54h-0.060l-0.081-1.861h-1.908c0.055 0.921 0.083 1.94 0.083 3.061l-0.020 6.66h2.188v-5.101c0-0.772 0.183-1.413 0.548-1.92 0.42-0.574 1.015-0.861 1.786-0.861 0.231-0.001 0.462 0.020 0.691 0.060zM114.292 20.784c0.014-0.64-0.129-1.194-0.425-1.66-0.38-0.602-0.963-0.9-1.747-0.9-0.716 0-1.298 0.292-1.742 0.88-0.364 0.468-0.582 1.027-0.649 1.68l4.563 0.001zM116.38 21.344c0 0.387-0.025 0.714-0.080 0.98h-6.571c0.026 0.961 0.344 1.695 0.954 2.202 0.554 0.453 1.269 0.68 2.149 0.68 0.972 0 1.86-0.153 2.658-0.46l0.343 1.5c-0.932 0.402-2.034 0.602-3.305 0.602-1.528 0-2.728-0.444-3.601-1.331s-1.308-2.077-1.308-3.571c0-1.466 0.405-2.687 1.218-3.66 0.851-1.039 2-1.559 3.446-1.559 1.421 0 2.497 0.519 3.228 1.559 0.578 0.826 0.868 1.847 0.868 3.060zM40.143 4.916c0-0.772-0.207-1.365-0.622-1.779s-1.020-0.62-1.82-0.62c-0.339 0-0.627 0.022-0.867 0.068v4.955c0.133 0.020 0.375 0.028 0.727 0.028 0.824 0 1.46-0.226 1.908-0.677 0.449-0.452 0.674-1.11 0.674-1.976v0zM41.279 4.886c0 1.193-0.364 2.091-1.087 2.693-0.671 0.556-1.624 0.836-2.859 0.836-0.526 0.004-1.052-0.022-1.575-0.080v-6.516c0.613-0.094 1.233-0.14 1.854-0.138 1.176 0 2.063 0.252 2.66 0.757 0.67 0.57 1.006 1.386 1.006 2.447v0.001zM46.181 5.963c0-0.441-0.097-0.819-0.289-1.133-0.226-0.381-0.548-0.572-0.965-0.572-0.433 0-0.762 0.19-0.988 0.572-0.193 0.316-0.289 0.7-0.289 1.153 0 0.441 0.097 0.82 0.289 1.134 0.233 0.381 0.557 0.572 0.977 0.572 0.412 0 0.733-0.194 0.965-0.582 0.2-0.321 0.3-0.701 0.3-1.142zM47.298 5.928c0 0.734-0.212 1.336-0.638 1.809-0.446 0.485-1.036 0.727-1.773 0.727-0.711 0-1.277-0.232-1.7-0.698-0.42-0.466-0.631-1.052-0.631-1.759 0-0.74 0.217-1.347 0.652-1.818s1.020-0.708 1.758-0.708c0.711 0 1.283 0.232 1.716 0.697 0.411 0.452 0.617 1.036 0.617 1.749zM55.368 3.579h0.001v0.002h-1.057l-0.588 2.231c-0.138 0.517-0.248 1.043-0.33 1.572h-0.029c-0.1-0.504-0.228-1.028-0.388-1.572l-0.659-2.231h-0.876l-0.687 2.28c-0.188 0.614-0.32 1.123-0.401 1.522h-0.019c-0.087-0.484-0.196-0.996-0.329-1.532l-0.548-2.271h-1.107l1.425 4.777h0.997l0.667-2.074c0.166-0.504 0.296-1.020 0.389-1.543h0.020c0.103 0.521 0.233 1.036 0.389 1.543l0.628 2.074h0.986l1.516-4.777zM60.949 8.356v-2.86c0-0.702-0.186-1.229-0.557-1.583-0.3-0.289-0.676-0.433-1.127-0.433-0.344-0.004-0.683 0.089-0.977 0.268-0.245 0.153-0.432 0.345-0.557 0.577h-0.029l-0.051-0.748h-0.947c0.027 0.493 0.040 0.948 0.040 1.367v3.411h1.076v-2.833c-0.004-0.3 0.102-0.592 0.299-0.819 0.2-0.232 0.459-0.348 0.779-0.348 0.651 0 0.975 0.421 0.975 1.265v2.735h1.076zM62.843 8.356v-6.967h1.076v6.967h-1.076zM69.139 5.963c0-0.441-0.096-0.819-0.288-1.133-0.225-0.381-0.548-0.572-0.964-0.572-0.434 0-0.763 0.19-0.988 0.572-0.192 0.316-0.288 0.7-0.288 1.153 0 0.441 0.096 0.82 0.289 1.134 0.233 0.381 0.557 0.572 0.977 0.572 0.412 0 0.732-0.194 0.964-0.582 0.2-0.321 0.299-0.701 0.299-1.142zM70.257 5.928c0 0.734-0.212 1.336-0.638 1.809-0.446 0.485-1.037 0.727-1.774 0.727-0.712 0-1.277-0.232-1.699-0.698s-0.632-1.052-0.632-1.759c0-0.74 0.217-1.347 0.652-1.818s1.020-0.708 1.757-0.708c0.712 0 1.282 0.232 1.716 0.697 0.412 0.452 0.618 1.036 0.618 1.749zM74.349 6.715v-0.736c-1.188-0.020-1.781 0.3-1.781 0.963 0 0.249 0.068 0.436 0.207 0.56s0.315 0.187 0.525 0.187c0.236 0 0.457-0.075 0.659-0.221 0.122-0.084 0.22-0.196 0.289-0.327s0.103-0.276 0.101-0.425zM75.468 8.356h-0.967l-0.080-0.55h-0.030c-0.331 0.439-0.802 0.659-1.414 0.659-0.457 0-0.827-0.145-1.106-0.433-0.252-0.261-0.379-0.587-0.379-0.972 0-0.584 0.246-1.028 0.742-1.336s1.192-0.46 2.089-0.452v-0.090c0-0.629-0.334-0.944-1.006-0.944-0.477 0-0.899 0.119-1.261 0.355l-0.22-0.698c0.45-0.275 1.005-0.412 1.661-0.412 1.266 0 1.9 0.659 1.9 1.976v1.759c0 0.477 0.024 0.857 0.069 1.139l0.001 0.001zM80.468 6.341v-0.796c0-0.138-0.010-0.249-0.029-0.334-0.058-0.251-0.195-0.476-0.389-0.644-0.2-0.172-0.456-0.265-0.72-0.26-0.402 0-0.716 0.156-0.948 0.472-0.228 0.315-0.345 0.717-0.345 1.209 0 0.471 0.11 0.854 0.331 1.149 0.233 0.315 0.548 0.471 0.941 0.471 0.354 0 0.636-0.131 0.851-0.393 0.207-0.243 0.308-0.534 0.308-0.875zM81.585 8.356h-0.956l-0.051-0.766h-0.029c-0.305 0.583-0.825 0.875-1.556 0.875-0.584 0-1.070-0.226-1.454-0.677-0.386-0.452-0.578-1.039-0.578-1.759 0-0.772 0.209-1.4 0.628-1.878 0.405-0.445 0.903-0.668 1.494-0.668 0.651 0 1.106 0.216 1.365 0.649h0.020v-2.741h1.078v5.681c0 0.465 0.012 0.894 0.038 1.287v-0.001zM89.676 5.963c0-0.441-0.096-0.819-0.289-1.133-0.227-0.381-0.547-0.572-0.966-0.572-0.432 0-0.76 0.19-0.988 0.572-0.193 0.316-0.289 0.7-0.289 1.153 0 0.441 0.097 0.82 0.289 1.134 0.233 0.381 0.557 0.572 0.978 0.572 0.41 0 0.734-0.194 0.966-0.582 0.198-0.321 0.299-0.701 0.299-1.142zM90.792 5.928c0 0.734-0.212 1.336-0.638 1.809-0.445 0.485-1.036 0.727-1.773 0.727-0.71 0-1.276-0.232-1.7-0.698-0.421-0.466-0.632-1.052-0.632-1.759 0-0.74 0.217-1.347 0.652-1.818s1.021-0.708 1.76-0.708c0.709 0 1.283 0.232 1.714 0.697 0.411 0.452 0.617 1.036 0.617 1.749zM96.581 8.356h-0.001v-2.86c0-0.702-0.184-1.229-0.557-1.583-0.299-0.289-0.676-0.433-1.126-0.433-0.344-0.004-0.683 0.090-0.977 0.268-0.244 0.153-0.431 0.345-0.557 0.577h-0.030l-0.051-0.748h-0.945c0.026 0.493 0.038 0.948 0.038 1.367v3.411h1.077v-2.833c-0.004-0.3 0.101-0.592 0.299-0.819 0.2-0.232 0.458-0.348 0.777-0.348 0.652 0 0.977 0.421 0.977 1.265v2.735h1.076zM103.827 4.374h-0.001v-0.796h-1.186v-1.188l-1.055 0.314v0.875h-0.708v0.796h0.708v2.409c0 0.604 0.119 1.033 0.36 1.288 0.239 0.255 0.57 0.383 0.996 0.383 0.343 0 0.623-0.039 0.836-0.119l-0.028-0.805c-0.126 0.034-0.286 0.050-0.48 0.050-0.417 0-0.628-0.294-0.628-0.884v-2.321h1.186zM109.526 8.356v-2.84c0-0.708-0.182-1.243-0.547-1.602-0.293-0.289-0.662-0.433-1.108-0.433-0.629 0-1.115 0.261-1.454 0.785h-0.020v-2.877h-1.076v6.966h1.075v-2.873c-0.003-0.129 0.015-0.258 0.050-0.381 0.188-0.497 0.529-0.745 1.028-0.745 0.651 0 0.975 0.428 0.975 1.284v2.716h1.078zM114.378 5.467c0.008-0.315-0.062-0.586-0.209-0.815-0.187-0.295-0.471-0.443-0.857-0.443-0.351 0-0.637 0.143-0.857 0.432-0.182 0.24-0.292 0.526-0.319 0.826h2.242zM115.405 5.741c0 0.19-0.015 0.35-0.041 0.482h-3.228c0.014 0.472 0.169 0.831 0.468 1.081 0.273 0.223 0.626 0.334 1.058 0.334 0.476 0 0.912-0.075 1.305-0.226l0.169 0.738c-0.46 0.196-1 0.295-1.625 0.295-0.751 0-1.341-0.218-1.769-0.653-0.429-0.436-0.642-1.021-0.642-1.755 0-0.721 0.198-1.32 0.598-1.798 0.417-0.51 0.981-0.766 1.693-0.766 0.696 0 1.225 0.256 1.583 0.766 0.288 0.405 0.43 0.907 0.43 1.502z"></path>
</symbol>
<symbol id="icon-google-play" viewBox="0 0 121 32">
<path fill="#41C7F2" style="fill: var(--colorBlue, #41C7F2)" d="M0.852 2.686c-0.308 0.31-0.412 0.93-0.412 1.446v22.644c0 0.517 0.206 1.034 0.412 1.447l0.103 0.103 12.759-12.716v-0.31l-12.862-12.613z"></path>
<path fill="#FEE000" style="fill: var(--colorYellow, #FEE000)" d="M17.932 19.746l-4.219-4.239v-0.31l4.219-4.239 0.102 0.104 5.043 2.895c1.44 0.827 1.44 2.172 0 2.998l-5.145 2.791z"></path>
<path fill="#C31E63" style="fill: var(--colorRed, #C31E63)" d="M18.036 19.745l-4.424-4.342-12.759 12.82c0.617 0.517 1.543 0.517 2.161 0.104l15.022-8.581z"></path>
<path fill="#2CA772" style="fill: var(--colorGreen, #2CA772)" d="M18.035 11.061l-15.124-8.478c-0.619-0.414-1.546-0.414-2.162 0.103l12.861 12.717 4.424-4.342z"></path>
<path fill="#fff" style="fill: var(--colorText, #fff)" d="M39.026 5.374c0 0.724-0.309 1.551-0.721 2.068-0.297 0.297-0.65 0.532-1.038 0.692s-0.804 0.241-1.225 0.239c-0.823 0-1.749-0.31-2.264-0.931-0.72-0.62-1.028-1.447-1.028-2.275 0-0.931 0.308-1.757 0.926-2.274 0.617-0.621 1.44-1.035 2.263-0.932 0.412 0 0.823 0.103 1.235 0.31 0.308 0.207 0.72 0.311 1.029 0.724l-0.515 0.31c-0.464-0.464-1.093-0.724-1.749-0.724-0.72 0-1.338 0.31-1.852 0.827-0.461 0.468-0.72 1.1-0.72 1.757 0 0.62 0.309 1.344 0.72 1.758 0.465 0.463 1.094 0.724 1.75 0.724 0.72 0 1.235-0.31 1.748-0.724 0.308-0.414 0.515-0.932 0.618-1.345h-2.264v-0.723h2.984c0.103 0.206 0.103 0.413 0.103 0.516zM43.758 2.789h-2.778v2.068h2.47v0.723h-2.47v1.965h2.778v0.723h-3.602v-6.204h3.602v0.724zM47.051 8.268h-0.823v-5.479h-1.748v-0.724h4.219v0.724h-1.749v5.48l0.102-0.001zM51.887 8.268v-6.204h0.823v6.1c-0.103 0.103-0.823 0.103-0.823 0.103zM55.386 8.269v-5.48h-1.748v-0.724h4.219v0.724h-1.749c0.103 0 0.103 5.48 0.103 5.48h-0.824zM65.984 7.442c-1.235 1.241-3.19 1.241-4.631 0-0.597-0.606-0.93-1.424-0.925-2.275 0-0.828 0.308-1.757 0.925-2.274 1.339-1.345 3.293-1.345 4.631-0.104 0.597 0.605 0.93 1.424 0.925 2.275 0 0.931-0.308 1.757-0.925 2.378zM61.971 6.925c0.926 0.931 2.47 0.931 3.293 0 0.461-0.468 0.72-1.1 0.72-1.758 0-0.62-0.309-1.241-0.72-1.757-0.927-0.931-2.47-0.931-3.293 0-0.461 0.468-0.721 1.1-0.72 1.757 0 0.62 0.308 1.241 0.72 1.758zM68.042 8.268v-6.204h1.028l2.984 4.756v-4.756h0.823v6.1h-0.823l-3.189-5.066v4.962l-0.823 0.207z"></path>
<path fill="#fff" style="fill: var(--color1, #fff)" d="M60.324 17.16c-2.47 0-4.322 1.964-4.219 4.446s1.956 4.342 4.424 4.239c2.367 0 4.22-1.964 4.22-4.343s-1.852-4.342-4.425-4.342zM60.324 24.191c-1.44 0.103-2.675-1.034-2.779-2.482-0.102-1.447 1.029-2.688 2.47-2.791s2.676 1.034 2.778 2.481v0.207c0.103 1.344-1.028 2.585-2.469 2.585zM50.756 17.16c-2.469 0-4.322 1.964-4.219 4.446 0 2.482 1.955 4.342 4.425 4.239 2.366 0 4.218-1.964 4.218-4.343s-1.955-4.342-4.424-4.342zM50.756 24.191c-1.441 0.103-2.676-1.034-2.778-2.482s1.028-2.688 2.469-2.791c1.44-0.104 2.676 1.034 2.778 2.481v0.207c0 1.344-1.029 2.585-2.47 2.585h0.001zM39.334 18.504v0.207h6.38c0.308 1.965-0.308 3.929-1.543 5.48-1.235 1.24-2.984 1.964-4.733 1.86h-0.515c-3.704-0.206-6.688-3.308-6.483-7.030s3.293-6.72 6.997-6.514c1.646 0 3.395 0.62 4.63 1.861l-1.338 1.241c-0.822-0.931-2.058-1.344-3.292-1.344-2.469 0-4.528 2.171-4.63 4.652-0.103 2.688 1.955 5.066 4.63 5.17 1.235 0.103 2.469-0.414 3.395-1.344 0.619-0.62 0.927-1.448 1.030-2.378h-4.528v-1.862zM86.048 19.952c-0.514-1.654-2.058-2.688-3.807-2.792-2.263 0-4.116 1.758-4.116 4.136v0.206c-0.102 2.379 1.75 4.343 4.116 4.446h0.205c1.441 0 2.882-0.724 3.705-1.86l-1.544-1.035c-0.412 0.724-1.235 1.138-2.161 1.138-0.45 0.001-0.891-0.124-1.273-0.362s-0.69-0.578-0.887-0.982l5.864-2.482-0.102-0.413zM80.080 21.399c-0.102-1.343 0.926-2.481 2.264-2.481h0.102c0.721-0.104 1.338 0.31 1.647 0.931l-4.013 1.55zM75.244 25.638v-12.82h1.852v12.82h-1.852zM72.157 18.195c-0.721-0.62-1.543-1.035-2.469-1.035-2.47 0.104-4.219 2.172-4.116 4.653 0.102 2.275 1.852 4.032 4.116 4.135 0.926 0 1.748-0.31 2.366-1.034h0.103v0.62c0.206 1.241-0.617 2.378-1.852 2.481h-0.412c-1.028 0-1.852-0.62-2.263-1.55l-1.646 0.724c0.617 1.551 2.16 2.585 3.909 2.585 2.264 0 4.116-1.344 4.116-4.549v-7.754h-1.852v0.724zM69.893 24.191c-1.44-0.103-2.469-1.344-2.469-2.792 0.103-1.343 1.132-2.481 2.469-2.481 1.338 0.103 2.47 1.138 2.367 2.584v0.104c0.103 1.447-0.926 2.585-2.367 2.585zM95 12.818h-4.63v12.82h1.852v-4.86h2.676c2.161 0.207 4.012-1.55 4.219-3.722s-1.543-4.032-3.705-4.239h-0.411zM95 19.021h-2.676v-4.445h2.676c1.235 0 2.264 1.034 2.264 2.171 0 1.242-0.927 2.275-2.264 2.275zM107.038 17.16c-1.44-0.103-2.779 0.724-3.396 1.964l1.749 0.724c0.308-0.621 1.028-1.035 1.749-0.932 1.029-0.103 1.955 0.621 2.058 1.655v0.103c-0.617-0.31-1.338-0.516-2.058-0.413-1.749 0-3.705 1.034-3.705 2.895 0.103 1.654 1.441 2.894 3.19 2.791h0.103c1.029 0.103 1.852-0.413 2.469-1.241h0.103v1.034h1.852v-4.963c-0.206-2.274-1.956-3.619-4.116-3.619zM106.73 24.191c-0.72 0.103-1.338-0.31-1.543-1.034 0-1.034 1.028-1.344 2.058-1.344 0.617 0 1.235 0.207 1.748 0.413-0.102 1.137-1.132 1.964-2.263 1.964zM117.636 17.471h2.264l-5.351 12.096h-2.058l1.955-4.342-3.396-7.754h2.059l2.263 5.479 2.264-5.479zM100.35 25.638v-12.82h1.852v12.82h-1.852z"></path>
</symbol>
</defs>
</svg>
