<?xml version="1.0" encoding="UTF-8" standalone="no"?>
<!DOCTYPE svg PUBLIC "-//W3C//DTD SVG 1.1//EN" "http://www.w3.org/Graphics/SVG/1.1/DTD/svg11.dtd">
<svg width="100%" height="100%" viewBox="0 0 255 198" version="1.1" xmlns="http://www.w3.org/2000/svg" xmlns:xlink="http://www.w3.org/1999/xlink" xml:space="preserve" xmlns:serif="http://www.serif.com/" style="fill-rule:evenodd;clip-rule:evenodd;stroke-linejoin:round;stroke-miterlimit:2;">
    <g transform="matrix(1,0,0,1,65.0003,-0.133)">
        <g opacity="0.8">
            <g transform="matrix(-1,7.65714e-16,-7.65714e-16,-1,380,331.338)">
                <path d="M331.306,169.669C331.306,167.461 329.514,165.669 327.306,165.669L194,165.669C191.792,165.669 190,167.461 190,169.669L190,280.236C190,282.444 191.792,284.236 194,284.236L327.306,284.236C329.514,284.236 331.306,282.444 331.306,280.236L331.306,169.669ZM325.306,278.236L325.306,171.669L196,171.669L196,278.236L325.306,278.236Z" style="fill:rgb(74,153,211);"/>
            </g>
            <g transform="matrix(-1,7.65714e-16,-7.65714e-16,-1,152.611,237.267)">
                <path d="M217.612,122.567C217.612,120.359 215.819,118.567 213.612,118.567L80.306,118.567C78.098,118.567 76.306,120.359 76.306,122.567L76.306,233.134C76.306,235.342 78.098,237.134 80.306,237.134L213.612,237.134C215.819,237.134 217.612,235.342 217.612,233.134L217.612,122.567ZM211.612,231.134L211.612,124.567L82.306,124.567L82.306,231.134L211.612,231.134Z" style="fill:rgb(74,153,211);"/>
            </g>
            <g transform="matrix(-1,7.65714e-16,-7.65714e-16,-1,315.032,396.306)">
                <path d="M298.822,202.153C298.822,199.945 297.03,198.153 294.822,198.153L161.516,198.153C159.308,198.153 157.516,199.945 157.516,202.153L157.516,312.72C157.516,314.928 159.308,316.72 161.516,316.72L294.822,316.72C297.03,316.72 298.822,314.928 298.822,312.72L298.822,202.153ZM290.822,308.72L290.822,206.153L165.516,206.153L165.516,308.72L290.822,308.72Z" style="fill:rgb(74,153,211);"/>
            </g>
        </g>
    </g>
</svg>
