<?xml version="1.0" encoding="UTF-8" standalone="no"?>
<!DOCTYPE svg PUBLIC "-//W3C//DTD SVG 1.1//EN" "http://www.w3.org/Graphics/SVG/1.1/DTD/svg11.dtd">
<svg width="100%" height="100%" viewBox="0 0 255 198" version="1.1" xmlns="http://www.w3.org/2000/svg" xmlns:xlink="http://www.w3.org/1999/xlink" xml:space="preserve" xmlns:serif="http://www.serif.com/" style="fill-rule:evenodd;clip-rule:evenodd;stroke-linejoin:round;stroke-miterlimit:2;">
    <g opacity="0.8">
        <path d="M141.306,36.484C141.306,34.276 139.514,32.484 137.306,32.484L4,32.484C1.792,32.484 0,34.276 0,36.484L0,147.051C0,149.259 1.792,151.051 4,151.051L137.306,151.051C139.514,151.051 141.306,149.259 141.306,147.051L141.306,36.484ZM6,38.484L6,145.051L135.306,145.051L135.306,38.484L6,38.484Z" style="fill:rgb(74,153,211);"/>
        <g transform="matrix(1,0,0,1,0,-0.186)">
            <path d="M255,83.586C255,81.378 253.208,79.586 251,79.586L117.694,79.586C115.486,79.586 113.694,81.378 113.694,83.586L113.694,194.153C113.694,196.361 115.486,198.153 117.694,198.153L251,198.153C253.208,198.153 255,196.361 255,194.153L255,83.586ZM119.694,85.586L119.694,192.153L249,192.153L249,85.586L119.694,85.586Z" style="fill:rgb(74,153,211);"/>
        </g>
        <path d="M173.79,4C173.79,1.792 171.998,0 169.79,0L36.484,0C34.276,0 32.484,1.792 32.484,4L32.484,114.567C32.484,116.775 34.276,118.567 36.484,118.567L169.79,118.567C171.998,118.567 173.79,116.775 173.79,114.567L173.79,4ZM40.484,8L40.484,110.567L165.79,110.567L165.79,8L40.484,8Z" style="fill:rgb(74,153,211);"/>
    </g>
</svg>
